<mxfile host="app.diagrams.net" modified="2024-05-20T09:11:21.677Z" agent="Mozilla/5.0 (Windows NT 10.0; Win64; x64) AppleWebKit/537.36 (KHTML, like Gecko) Chrome/124.0.0.0 Safari/537.36" etag="JaM0IlE4VvngT3kd3k2Z" version="24.4.4" type="github">
  <diagram id="C5RBs43oDa-KdzZeNtuy" name="Page-1">
    <mxGraphModel dx="1430" dy="757" grid="1" gridSize="10" guides="1" tooltips="1" connect="1" arrows="1" fold="1" page="1" pageScale="1" pageWidth="827" pageHeight="1169" math="0" shadow="0">
      <root>
        <mxCell id="WIyWlLk6GJQsqaUBKTNV-0" />
        <mxCell id="WIyWlLk6GJQsqaUBKTNV-1" parent="WIyWlLk6GJQsqaUBKTNV-0" />
        <mxCell id="3shrx6Ndx7oGJynZg30E-2" value="设备上电" style="strokeWidth=2;html=1;shape=mxgraph.flowchart.start_2;whiteSpace=wrap;rounded=1;shadow=0;glass=0;sketch=1;jiggle=2;curveFitting=1;strokeColor=#666666;align=center;verticalAlign=middle;fontFamily=Helvetica;fontSize=12;fontColor=#333333;fillColor=#f5f5f5;" vertex="1" parent="WIyWlLk6GJQsqaUBKTNV-1">
          <mxGeometry x="400" y="60" width="100" height="100" as="geometry" />
        </mxCell>
        <mxCell id="3shrx6Ndx7oGJynZg30E-3" style="edgeStyle=orthogonalEdgeStyle;rounded=0;orthogonalLoop=1;jettySize=auto;html=1;exitX=0.5;exitY=1;exitDx=0;exitDy=0;exitPerimeter=0;entryX=0.555;entryY=-0.04;entryDx=0;entryDy=0;entryPerimeter=0;fontFamily=Helvetica;fontSize=12;fontColor=#333333;targetPerimeterSpacing=1;sourcePerimeterSpacing=1;endArrow=block;endFill=0;" edge="1" parent="WIyWlLk6GJQsqaUBKTNV-1" source="3shrx6Ndx7oGJynZg30E-2" target="3shrx6Ndx7oGJynZg30E-9">
          <mxGeometry relative="1" as="geometry">
            <mxPoint x="450" y="210" as="targetPoint" />
          </mxGeometry>
        </mxCell>
        <mxCell id="3shrx6Ndx7oGJynZg30E-5" style="edgeStyle=orthogonalEdgeStyle;rounded=0;orthogonalLoop=1;jettySize=auto;html=1;entryX=0.973;entryY=0.493;entryDx=0;entryDy=0;entryPerimeter=0;fontFamily=Helvetica;fontSize=12;fontColor=#333333;exitX=0;exitY=0.5;exitDx=0;exitDy=0;endArrow=block;endFill=0;" edge="1" parent="WIyWlLk6GJQsqaUBKTNV-1" source="3shrx6Ndx7oGJynZg30E-9" target="3shrx6Ndx7oGJynZg30E-8">
          <mxGeometry relative="1" as="geometry">
            <mxPoint x="390" y="270" as="sourcePoint" />
            <mxPoint x="300" y="265" as="targetPoint" />
          </mxGeometry>
        </mxCell>
        <mxCell id="3shrx6Ndx7oGJynZg30E-8" value="&lt;span style=&quot;font-family: Calibri; font-size: 14px; background-color: rgb(251, 251, 251);&quot;&gt;flash&lt;/span&gt;" style="strokeWidth=2;html=1;shape=mxgraph.flowchart.stored_data;whiteSpace=wrap;rounded=1;shadow=0;glass=0;sketch=1;jiggle=2;curveFitting=1;strokeColor=#666666;align=center;verticalAlign=middle;fontFamily=Helvetica;fontSize=12;fontColor=#333333;labelBackgroundColor=default;fillColor=#f5f5f5;" vertex="1" parent="WIyWlLk6GJQsqaUBKTNV-1">
          <mxGeometry x="220" y="210" width="100" height="60" as="geometry" />
        </mxCell>
        <mxCell id="3shrx6Ndx7oGJynZg30E-9" value="&lt;span style=&quot;color: rgb(0, 0, 0); background-color: rgb(251, 251, 251);&quot;&gt;读取是否绑定标识&lt;/span&gt;" style="rounded=1;whiteSpace=wrap;html=1;absoluteArcSize=1;arcSize=14;strokeWidth=2;shadow=0;glass=0;sketch=1;jiggle=2;curveFitting=1;strokeColor=#666666;align=center;verticalAlign=middle;fontFamily=Helvetica;fontSize=12;fontColor=#333333;labelBackgroundColor=default;fillColor=#f5f5f5;" vertex="1" parent="WIyWlLk6GJQsqaUBKTNV-1">
          <mxGeometry x="390" y="200" width="110" height="80" as="geometry" />
        </mxCell>
        <mxCell id="3shrx6Ndx7oGJynZg30E-13" style="edgeStyle=orthogonalEdgeStyle;rounded=0;orthogonalLoop=1;jettySize=auto;html=1;exitX=0.5;exitY=1;exitDx=0;exitDy=0;exitPerimeter=0;strokeColor=default;align=center;verticalAlign=middle;fontFamily=Helvetica;fontSize=12;fontColor=#333333;labelBackgroundColor=default;endArrow=block;endFill=0;sourcePerimeterSpacing=1;targetPerimeterSpacing=1;" edge="1" parent="WIyWlLk6GJQsqaUBKTNV-1" source="3shrx6Ndx7oGJynZg30E-11">
          <mxGeometry relative="1" as="geometry">
            <mxPoint x="445.1724137931035" y="520" as="targetPoint" />
          </mxGeometry>
        </mxCell>
        <mxCell id="3shrx6Ndx7oGJynZg30E-15" value="Y" style="edgeLabel;html=1;align=center;verticalAlign=middle;resizable=0;points=[];rounded=1;shadow=0;glass=0;sketch=1;jiggle=2;curveFitting=1;strokeColor=#666666;strokeWidth=2;fontFamily=Helvetica;fontSize=12;fontColor=#333333;labelBackgroundColor=default;fillColor=#f5f5f5;" vertex="1" connectable="0" parent="3shrx6Ndx7oGJynZg30E-13">
          <mxGeometry x="-0.259" y="1" relative="1" as="geometry">
            <mxPoint as="offset" />
          </mxGeometry>
        </mxCell>
        <mxCell id="3shrx6Ndx7oGJynZg30E-18" style="edgeStyle=orthogonalEdgeStyle;rounded=0;orthogonalLoop=1;jettySize=auto;html=1;strokeColor=default;align=center;verticalAlign=middle;fontFamily=Helvetica;fontSize=12;fontColor=#333333;labelBackgroundColor=default;endArrow=block;endFill=0;sourcePerimeterSpacing=1;targetPerimeterSpacing=1;entryX=1;entryY=0.5;entryDx=0;entryDy=0;" edge="1" parent="WIyWlLk6GJQsqaUBKTNV-1" source="3shrx6Ndx7oGJynZg30E-11">
          <mxGeometry relative="1" as="geometry">
            <mxPoint x="340" y="390" as="targetPoint" />
          </mxGeometry>
        </mxCell>
        <mxCell id="3shrx6Ndx7oGJynZg30E-11" value="已绑定" style="strokeWidth=2;html=1;shape=mxgraph.flowchart.decision;whiteSpace=wrap;rounded=1;shadow=0;glass=0;sketch=1;jiggle=2;curveFitting=1;strokeColor=#666666;align=center;verticalAlign=middle;fontFamily=Helvetica;fontSize=12;fontColor=#333333;labelBackgroundColor=default;fillColor=#f5f5f5;" vertex="1" parent="WIyWlLk6GJQsqaUBKTNV-1">
          <mxGeometry x="395" y="340" width="100" height="100" as="geometry" />
        </mxCell>
        <mxCell id="3shrx6Ndx7oGJynZg30E-12" style="edgeStyle=orthogonalEdgeStyle;rounded=0;orthogonalLoop=1;jettySize=auto;html=1;entryX=0.5;entryY=0;entryDx=0;entryDy=0;entryPerimeter=0;strokeColor=default;align=center;verticalAlign=middle;fontFamily=Helvetica;fontSize=12;fontColor=#333333;labelBackgroundColor=default;endArrow=block;endFill=0;sourcePerimeterSpacing=1;targetPerimeterSpacing=1;" edge="1" parent="WIyWlLk6GJQsqaUBKTNV-1" source="3shrx6Ndx7oGJynZg30E-9" target="3shrx6Ndx7oGJynZg30E-11">
          <mxGeometry relative="1" as="geometry" />
        </mxCell>
        <mxCell id="3shrx6Ndx7oGJynZg30E-16" style="edgeStyle=orthogonalEdgeStyle;rounded=0;orthogonalLoop=1;jettySize=auto;html=1;exitX=0.5;exitY=1;exitDx=0;exitDy=0;strokeColor=default;align=center;verticalAlign=middle;fontFamily=Helvetica;fontSize=12;fontColor=#333333;labelBackgroundColor=default;endArrow=block;endFill=0;sourcePerimeterSpacing=1;targetPerimeterSpacing=1;entryX=0.5;entryY=0;entryDx=0;entryDy=0;entryPerimeter=0;" edge="1" parent="WIyWlLk6GJQsqaUBKTNV-1" source="3shrx6Ndx7oGJynZg30E-14" target="3shrx6Ndx7oGJynZg30E-17">
          <mxGeometry relative="1" as="geometry">
            <mxPoint x="440.344827586207" y="650" as="targetPoint" />
          </mxGeometry>
        </mxCell>
        <mxCell id="3shrx6Ndx7oGJynZg30E-14" value="&lt;font color=&quot;#000000&quot;&gt;&lt;span style=&quot;background-color: rgb(251, 251, 251);&quot;&gt;进入手环主页&lt;/span&gt;&lt;/font&gt;" style="rounded=1;whiteSpace=wrap;html=1;absoluteArcSize=1;arcSize=14;strokeWidth=2;shadow=0;glass=0;sketch=1;jiggle=2;curveFitting=1;strokeColor=#666666;align=center;verticalAlign=middle;fontFamily=Helvetica;fontSize=12;fontColor=#333333;labelBackgroundColor=default;fillColor=#f5f5f5;" vertex="1" parent="WIyWlLk6GJQsqaUBKTNV-1">
          <mxGeometry x="385" y="520" width="110" height="80" as="geometry" />
        </mxCell>
        <mxCell id="3shrx6Ndx7oGJynZg30E-17" value="结束" style="strokeWidth=2;html=1;shape=mxgraph.flowchart.terminator;whiteSpace=wrap;rounded=1;shadow=0;glass=0;sketch=1;jiggle=2;curveFitting=1;strokeColor=#666666;align=center;verticalAlign=middle;fontFamily=Helvetica;fontSize=12;fontColor=#333333;labelBackgroundColor=default;fillColor=#f5f5f5;" vertex="1" parent="WIyWlLk6GJQsqaUBKTNV-1">
          <mxGeometry x="390" y="670" width="100" height="60" as="geometry" />
        </mxCell>
        <mxCell id="3shrx6Ndx7oGJynZg30E-19" value="&lt;font color=&quot;#000000&quot;&gt;&lt;span style=&quot;background-color: rgb(251, 251, 251);&quot;&gt;显示绑定二维码&lt;/span&gt;&lt;/font&gt;" style="rounded=1;whiteSpace=wrap;html=1;absoluteArcSize=1;arcSize=14;strokeWidth=2;shadow=0;glass=0;sketch=1;jiggle=2;curveFitting=1;strokeColor=#666666;align=center;verticalAlign=middle;fontFamily=Helvetica;fontSize=12;fontColor=#333333;labelBackgroundColor=default;fillColor=#f5f5f5;" vertex="1" parent="WIyWlLk6GJQsqaUBKTNV-1">
          <mxGeometry x="220" y="350" width="110" height="80" as="geometry" />
        </mxCell>
        <mxCell id="3shrx6Ndx7oGJynZg30E-20" style="edgeStyle=orthogonalEdgeStyle;rounded=0;orthogonalLoop=1;jettySize=auto;html=1;exitX=0.5;exitY=1;exitDx=0;exitDy=0;entryX=0.007;entryY=0.619;entryDx=0;entryDy=0;entryPerimeter=0;strokeColor=default;align=center;verticalAlign=middle;fontFamily=Helvetica;fontSize=12;fontColor=#333333;labelBackgroundColor=default;endArrow=block;endFill=0;sourcePerimeterSpacing=1;targetPerimeterSpacing=1;" edge="1" parent="WIyWlLk6GJQsqaUBKTNV-1" source="3shrx6Ndx7oGJynZg30E-19" target="3shrx6Ndx7oGJynZg30E-17">
          <mxGeometry relative="1" as="geometry" />
        </mxCell>
      </root>
    </mxGraphModel>
  </diagram>
</mxfile>
